<mxfile host="app.diagrams.net" modified="2024-04-10T02:20:32.803Z" agent="Mozilla/5.0 (Windows NT 10.0; Win64; x64) AppleWebKit/537.36 (KHTML, like Gecko) Chrome/123.0.0.0 Safari/537.36" version="24.2.3" etag="UvmfiiF1dLN1yVsUhQ7u" type="github">
  <diagram name="PÃ¡gina-1" id="UUhILzMUXBAH4a2CW5Rb">
    <mxGraphModel>
      <root>
        <mxCell id="0" />
        <mxCell id="1" parent="0" />
      </root>
    </mxGraphModel>
  </diagram>
</mxfile>
